# xmcd
#
# Track frame offsets: 
#        150
#        14115
#        45990
#        53579
#        66513
#        79766
#        91732
#        105452
#        113120
#        117492
#        127544
#        141469
#        152808
#        159982
#        173762
#        191139
#        216102
#        229953
#        244090
#        253239
#        262329
#        273517
#        289545
#        296919
#
# Disc length: 4003 seconds
#
# Revision: 0
# Processed by: cddbd v1.5.2PL0 Copyright (c) Steve Scherf et al.
# Submitted via: ExactAudioCopy v0.99pb5
#
DISCID=670fa118
DTITLE=Elvis Presley  - FTD 76-2 - Nevada Nights - 08-21-1974-CD 2
DYEAR=1900
DGENRE=
TTITLE0=01 - See See Rider
TTITLE1=02 - I Got A Woman
TTITLE2=03 - Love Me
TTITLE3=04 - If You Love Me
TTITLE4=05 - It's Midnight
TTITLE5=06 - Big Boss Man
TTITLE6=07 - Fever
TTITLE7=08 - Love Me Tender
TTITLE8=09 - All Shook Up
TTITLE9=10 - Dialogue
TTITLE10=11 - I'm Leavin'
TTITLE11=12 - Softly As I Leave You
TTITLE12=13 - Hound Dog
TTITLE13=14 - You Gave Me A Mountain
TTITLE14=15 - Polk Salad Annie
TTITLE15=16 - Introductions
TTITLE16=17 - If You Talk In Your Sleep
TTITLE17=18 - Why Me Lord
TTITLE18=19 - Teddy Bear-Don't Be Cruel
TTITLE19=20 - Hawaiian Wedding Song
TTITLE20=21 - The First Time Ever I Saw Your Face
TTITLE21=22 - Let Me Be There
TTITLE22=23 - Can't Help Falling In Love
TTITLE23=24 - Closing Vamp
EXTD=
EXTT0=
EXTT1=
EXTT2=
EXTT3=
EXTT4=
EXTT5=
EXTT6=
EXTT7=
EXTT8=
EXTT9=
EXTT10=
EXTT11=
EXTT12=
EXTT13=
EXTT14=
EXTT15=
EXTT16=
EXTT17=
EXTT18=
EXTT19=
EXTT20=
EXTT21=
EXTT22=
EXTT23=
PLAYORDER=
